<?xml version="1.0" standalone="no"?>
<!DOCTYPE svg PUBLIC "-//W3C//DTD SVG 20010904//EN"
 "http://www.w3.org/TR/2001/REC-SVG-20010904/DTD/svg10.dtd">
<svg version="1.0" xmlns="http://www.w3.org/2000/svg"
 width="512.000000pt" height="512.000000pt" viewBox="0 0 512.000000 512.000000"
 preserveAspectRatio="xMidYMid meet">

<g transform="translate(0.000000,512.000000) scale(0.100000,-0.100000)"
fill="#000000" stroke="none">
<path d="M4960 4704 c-109 -41 -348 -105 -515 -137 -499 -97 -1144 -147 -1895
-147 -1114 0 -2002 110 -2462 304 -14 6 -9 -26 29 -211 24 -120 55 -241 68
-269 45 -101 141 -176 255 -199 l54 -11 99 -162 99 -162 269 0 269 0 0 -315 0
-315 -270 0 -270 0 2 -162 3 -163 267 -3 268 -2 0 -1190 0 -1190 175 0 175 0
0 1190 0 1190 980 0 980 0 0 -1190 0 -1190 175 0 175 0 0 1190 0 1190 268 2
267 3 3 163 2 162 -270 0 -270 0 0 315 0 315 269 0 269 0 100 163 99 162 44 6
c24 4 61 14 81 22 44 18 120 86 149 133 16 27 154 535 146 539 -1 1 -40 -13
-87 -31z m-2580 -1309 l0 -315 -400 0 -400 0 0 315 0 315 400 0 400 0 0 -315z
m1160 0 l0 -315 -400 0 -400 0 0 315 0 315 400 0 400 0 0 -315z"/>
</g>
</svg>
